<svg width="23" height="23" viewBox="0 0 23 23" fill="none" xmlns="http://www.w3.org/2000/svg">
<path d="M0 3C0 1.34315 1.34315 0 3 0H6V6H0V3Z" fill="white" fill-opacity="0.49"/>
<rect x="8" width="7" height="6" fill="white" fill-opacity="0.49"/>
<path d="M17 0H20C21.6569 0 23 1.34315 23 3V6H17V0Z" fill="white" fill-opacity="0.49"/>
<rect x="17" y="8" width="6" height="7" fill="white" fill-opacity="0.49"/>
<path d="M17 17H23V20C23 21.6569 21.6569 23 20 23H17V17Z" fill="white" fill-opacity="0.49"/>
<rect x="8" y="8" width="7" height="7" fill="white" fill-opacity="0.49"/>
<rect x="8" y="17" width="7" height="6" fill="white" fill-opacity="0.49"/>
<rect y="8" width="6" height="7" fill="white" fill-opacity="0.49"/>
<path d="M0 17H6V23H3C1.34315 23 0 21.6569 0 20V17Z" fill="white" fill-opacity="0.49"/>
</svg>
